@startuml

package "semaphore" {
	interface "Semaphore" as semaphore.Semaphore {
		+Acquire(ctx: context.Context, n: int): error
		+GetCount(): int
		+GetLimit(): int
		+Release(n: int): int
		+SetLimit(limit: int)
		+TryAcquire(n: int): bool
	}
}



package "slog" {
	class "AppengineEntry" as slog.AppengineEntry <<E,#FFCC00>> {
		+Time: string
		+Trace: string
		+SourceLocation: *slog.AppengineSourceLocation
		+Severity: string
		+Message: string
		+Data: string
		+XXX_NoUnkeyedLiteral: struct{}
		+XXX_unrecognized: []byte
		+XXX_sizecache: int32
		+Reset()
		+String(): string
		+ProtoMessage()
		+Descriptor(): ([]byte, []int)
		+XXX_Unmarshal(b: []byte): error
		+XXX_Marshal(b: []byte, deterministic: bool): ([]byte, error)
		+XXX_Merge(src: protoiface.MessageV1)
		+XXX_Size(): int
		+XXX_DiscardUnknown()
		+GetTime(): string
		+GetTrace(): string
		+GetSourceLocation(): *slog.AppengineSourceLocation
		+GetSeverity(): string
		+GetMessage(): string
		+GetData(): string
		+Validate(): error
	}
}

	slog.AppengineEntry --> slog.AppengineSourceLocation

	slog.AppengineEntry ..> slog.AppengineSourceLocation : <<return>> 

package "slog" {
	class "AppengineEntryValidationError" as slog.AppengineEntryValidationError <<V,Orchid>> {
		-field: string
		-reason: string
		-cause: error
		-key: bool
		+Field(): string
		+Reason(): string
		+Cause(): error
		+Key(): bool
		+ErrorName(): string
		+Error(): string
	}
}



package "slog" {
	interface "AppengineEntryer" as slog.AppengineEntryer {
		+Descriptor(): ([]byte, []int)
		+GetData(): anypb.Any
		+GetMessage(): string
		+GetSeverity(): string
		+GetSourceLocation(): *slog.AppengineSourceLocation
		+GetTime(): string
		+GetTrace(): string
		+ProtoMessage()
		+Reset()
		+String(): string
		+Validate(): error
		+XXX_DiscardUnknown()
		+XXX_Marshal(: []byte, : bool): ([]byte, error)
		+XXX_Merge(: protoiface.MessageV1)
		+XXX_Size(): int
		+XXX_Unmarshal(: []byte): error
	}
}


	slog.AppengineEntryer ..> slog.AppengineSourceLocation : <<return>> 

package "slog" {
	class "AppengineLoggingWriter" as slog.AppengineLoggingWriter <<V,Orchid>> {
		-stdout: *os.File
		-stderr: *os.File
		-parentProjects: string
		-projectID: string
		-traceIDTemplate: string
		+Write(p: []byte): (int, error)
		+WriteLevel(level: zerolog.Level, p: []byte): (int, error)
		+GetTraceIDTemplate(): string
		+GetTraceURLTemplate(): string
		+GetParentProjects(): string
	}
}



package "slog" {
	class "AppengineSourceLocation" as slog.AppengineSourceLocation <<E,#FFCC00>> {
		+File: string
		+Line: string
		+Function: string
		+XXX_NoUnkeyedLiteral: struct{}
		+XXX_unrecognized: []byte
		+XXX_sizecache: int32
		+Reset()
		+String(): string
		+ProtoMessage()
		+Descriptor(): ([]byte, []int)
		+XXX_Unmarshal(b: []byte): error
		+XXX_Marshal(b: []byte, deterministic: bool): ([]byte, error)
		+XXX_Merge(src: protoiface.MessageV1)
		+XXX_Size(): int
		+XXX_DiscardUnknown()
		+GetFile(): string
		+GetLine(): string
		+GetFunction(): string
		+Validate(): error
	}
}



package "slog" {
	class "AppengineSourceLocationValidationError" as slog.AppengineSourceLocationValidationError <<V,Orchid>> {
		-field: string
		-reason: string
		-cause: error
		-key: bool
		+Field(): string
		+Reason(): string
		+Cause(): error
		+Key(): bool
		+ErrorName(): string
		+Error(): string
	}
}



package "slog" {
	class "HookMeta" as slog.HookMeta <<V,Orchid>> {
		+Run(e: zerolog.Event, level: zerolog.Level, msg: string)
	}
}



package "slog" {
	class "StackdriverCloser" as slog.StackdriverCloser <<E,#FFCC00>> {
		-client: logging.Client
		+Close(): error
	}
}



package "slog" {
	class "StackdriverLoggingWriter" as slog.StackdriverLoggingWriter <<E,#FFCC00>> {
		+Logger: logging.Logger
		-parentProjects: string
		-projectID: string
		-traceIDTemplate: string
		+Write(p: []byte): (int, error)
		+WriteLevel(level: zerolog.Level, p: []byte): (int, error)
		+Flush(): error
		+GetTraceIDTemplate(): string
		+GetTraceURLTemplate(): string
		+GetParentProjects(): string
	}
}



package "slog" {
	class "StackdriverZerologWriter" as slog.StackdriverZerologWriter <<E,#FFCC00>> {
		-ctx: context.Context
		+Init(: context.Context): (io.Closer, error)
		+MarshalZerologObject(e: zerolog.Event)
	}
}



package "slog" {
	class "TraceObject" as slog.TraceObject <<E,#FFCC00>> {
		-ctx: context.Context
		+MarshalZerologObject(e: zerolog.Event)
	}
}



package "slog" {
	interface "Tracer" as slog.Tracer {
		+GetTraceIDTemplate(): string
		+GetTraceURLTemplate(): string
	}
}



package "slog" {
	class "rawJSON" as slog.rawJSON <<E,#FFCC00>> {
		+MarshalJSON(): ([]byte, error)
		+UnmarshalJSON(b: []byte): error
	}
}



package "terminate" {
	interface "TerminateGetContexter" as terminate.TerminateGetContexter {
		+GetContext(): context.Context
	}
}



package "terminate" {
	interface "TopicContextContext" as terminate.TopicContextContext {
		+Publish(ctx: context.Context, c: <-chan context.Context)
		+Publisher(ctx: context.Context): chan<- context.Context
		+Subscribe(c: chan<- context.Context)
	}
}



package "terminate" {
	class "mapContextContext" as terminate.mapContextContext <<V,Orchid>> {
		-m: sync.Map
		-get(topic: interface{}): terminate.TopicContextContext
	}
}



package "terminate" {
	class "tContextContext" as terminate.tContextContext <<E,#FFCC00>> {
		-mu: sync.RWMutex
		-c: []chan<- context.Context
		+Publish(ctx: context.Context, c: <-chan context.Context)
		+Publisher(ctx: context.Context): chan<- context.Context
		+Subscribe(c: chan<- context.Context)
	}
}

	terminate.tContextContext --> sync.RWMutex


package "update" {
	interface "UpdateGetContexter" as update.UpdateGetContexter {
		+GetContext(): context.Context
	}
}



package "cmd" {
	class "Resource" as cmd.Resource <<E,#FFCC00>> {
		+Context: context.Context
		+Resource: []func(context.Context) (io.Closer, error)
		-closer: []io.Closer
		+Init(): error
		+Close(): err: error
	}
}



package "debug" {
	interface "ClientRepository" as debug.ClientRepository {
		+Config(: context.Context): (debug.ClientWithContexter, error)
		+Connect(: debug.ClientWithContexter): error
	}
}


	debug.ClientRepository ..> debug.ClientWithContexter : <<return>> 
	debug.ClientRepository ..> debug.ClientWithContexter : <<use>> 

package "debug" {
	class "ClientWithContext" as debug.ClientWithContext <<E,#FFCC00>> {
		+Context: context.Context
		+Client: pb.DebugClienter
		+GetContext(): context.Context
		+GetClient(): pb.DebugClienter
		+MarshalZerologObject(e: zerolog.Event)
		+String(): string
		+Validate(): error
	}
}

	debug.ClientWithContext --> pb.DebugClienter

	debug.ClientWithContext ..> pb.DebugClienter : <<return>> 

package "debug" {
	interface "ClientWithContexter" as debug.ClientWithContexter {
		+GetClient(): pb.DebugClienter
		+GetContext(): context.Context
		+MarshalZerologObject(: zerolog.Event)
		+String(): string
		+Validate(): error
	}
}


	debug.ClientWithContexter ..> pb.DebugClienter : <<return>> 

package "pb" {
	interface "DebugClienter" as pb.DebugClienter {
		+Descriptor(): ([]byte, []int)
		+GetId(): string
		+MarshalZerologObject(: zerolog.Event)
		+ProtoMessage()
		+Reset()
		+String(): string
		+Validate(): error
		+XXX_DiscardUnknown()
		+XXX_Marshal(: []byte, : bool): ([]byte, error)
		+XXX_Merge(: protoiface.MessageV1)
		+XXX_Size(): int
		+XXX_Unmarshal(: []byte): error
	}
}



package "debug" {
	interface "TopicClientWithContexter" as debug.TopicClientWithContexter {
		+Publish(ctx: context.Context, c: <-chan debug.ClientWithContexter)
		+Publisher(ctx: context.Context): chan<- debug.ClientWithContexter
		+Subscribe(c: chan<- debug.ClientWithContexter)
	}
}



package "debug" {
	interface "TopicClienter" as debug.TopicClienter {
		+Publish(ctx: context.Context, c: pb.DebugClienter)
		+Publisher(ctx: context.Context): pb.DebugClienter
		+Subscribe(c: pb.DebugClienter)
	}
}



package "debug" {
	class "mapClientWithContexter" as debug.mapClientWithContexter <<V,Orchid>> {
		-m: sync.Map
		-get(topic: interface{}): debug.TopicClientWithContexter
	}
}



package "debug" {
	class "mapClienter" as debug.mapClienter <<V,Orchid>> {
		-m: sync.Map
		-get(topic: interface{}): debug.TopicClienter
	}
}



package "debug" {
	class "tClientWithContexter" as debug.tClientWithContexter <<E,#FFCC00>> {
		-mu: sync.RWMutex
		-c: []chan<- debug.ClientWithContexter
		+Publish(ctx: context.Context, c: <-chan debug.ClientWithContexter)
		+Publisher(ctx: context.Context): chan<- debug.ClientWithContexter
		+Subscribe(c: chan<- debug.ClientWithContexter)
	}
}

	debug.tClientWithContexter --> sync.RWMutex


package "debug" {
	class "tClienter" as debug.tClienter <<E,#FFCC00>> {
		-mu: sync.RWMutex
		-c: pb.DebugClienter
		+Publish(ctx: context.Context, c: pb.DebugClienter)
		+Publisher(ctx: context.Context): pb.DebugClienter
		+Subscribe(c: pb.DebugClienter)
	}
}

	debug.tClienter --> sync.RWMutex


package "event" {
	interface "Closer" as event.Closer {
		+Close(): error
	}
}



package "pb" {
	class "Event" as pb.Event <<E,#FFCC00>> {
		+Id: []byte
		+Origin: string
		+TimePoint: pb.EventTimePoint
		+XXX_NoUnkeyedLiteral: struct{}
		+XXX_unrecognized: []byte
		+XXX_sizecache: int32
		+GetKey(): []byte
		+AddTimePoint(tag: string, timeStamp: time.Time): (pb.Eventer, error)
		+Reset()
		+String(): string
		+ProtoMessage()
		+Descriptor(): ([]byte, []int)
		+XXX_Unmarshal(b: []byte): error
		+XXX_Marshal(b: []byte, deterministic: bool): ([]byte, error)
		+XXX_Merge(src: protoiface.MessageV1)
		+XXX_Size(): int
		+XXX_DiscardUnknown()
		+GetId(): []byte
		+GetOrigin(): string
		+GetTimePoint(): pb.EventTimePoint
		+Validate(): error
		+MarshalZerologObject(e: zerolog.Event)
	}
}


	pb.Event ..> pb.Eventer : <<return>> 

package "event" {
	class "EventWithContext" as event.EventWithContext <<E,#FFCC00>> {
		+Context: context.Context
		+Event: pb.Eventer
		+GetContext(): context.Context
		+GetEvent(): pb.Eventer
		+MarshalZerologObject(e: zerolog.Event)
		+String(): string
		+Validate(): error
	}
}

	event.EventWithContext --> pb.Eventer

	event.EventWithContext ..> pb.Eventer : <<return>> 

package "event" {
	interface "EventWithContexter" as event.EventWithContexter {
		+GetContext(): context.Context
		+GetEvent(): pb.Eventer
		+MarshalZerologObject(: zerolog.Event)
		+String(): string
		+Validate(): error
	}
}


	event.EventWithContexter ..> pb.Eventer : <<return>> 

package "pb" {
	interface "Eventer" as pb.Eventer {
		+AddTimePoint(: string, : time.Time): (pb.Eventer, error)
		+Descriptor(): ([]byte, []int)
		+GetId(): []byte
		+GetKey(): []byte
		+GetOrigin(): string
		+GetTimePoint(): pb.EventTimePoint
		+MarshalZerologObject(: zerolog.Event)
		+ProtoMessage()
		+Reset()
		+String(): string
		+Validate(): error
		+XXX_DiscardUnknown()
		+XXX_Marshal(: []byte, : bool): ([]byte, error)
		+XXX_Merge(: protoiface.MessageV1)
		+XXX_Size(): int
		+XXX_Unmarshal(: []byte): error
	}
}


	pb.Eventer ..> pb.Eventer : <<return>> 

package "keyvalue" {
	class "KeyValueWithContext" as keyvalue.KeyValueWithContext <<E,#FFCC00>> {
		+Context: context.Context
		+KeyValue: pb.KeyValuer
		+GetContext(): context.Context
		+GetKeyValue(): pb.KeyValuer
		+MarshalZerologObject(e: zerolog.Event)
		+String(): string
		+Validate(): error
	}
}



package "keyvalue" {
	interface "KeyValueWithContexter" as keyvalue.KeyValueWithContexter {
		+GetContext(): context.Context
		+GetKeyValue(): pb.KeyValuer
		+MarshalZerologObject(: zerolog.Event)
		+String(): string
		+Validate(): error
	}
}



package "event" {
	interface "Keyer" as event.Keyer {
		+GetKey(): string
		+MarshalZerologObject(e: zerolog.Event)
	}
}



package "event" {
	interface "Loader" as event.Loader {
		+Load(: context.Context, : pb.KeyPrefixer): (pb.KeyValuer, error)
	}
}



package "event" {
	interface "Message" as event.Message {
		+MarshalZerologObject(e: zerolog.Event)
		+ProtoMessage()
		+Reset()
		+String(): string
	}
}



package "event" {
	interface "Saver" as event.Saver {
		+Save(: context.Context, : pb.KeyValuer): error
	}
}



package "pb" {
	class "EventTimePoint" as pb.EventTimePoint <<E,#FFCC00>> {
		+Timestamp: timestamppb.Timestamp
		+Tag: string
		+XXX_NoUnkeyedLiteral: struct{}
		+XXX_unrecognized: []byte
		+XXX_sizecache: int32
		+Reset()
		+String(): string
		+ProtoMessage()
		+Descriptor(): ([]byte, []int)
		+XXX_Unmarshal(b: []byte): error
		+XXX_Marshal(b: []byte, deterministic: bool): ([]byte, error)
		+XXX_Merge(src: protoiface.MessageV1)
		+XXX_Size(): int
		+XXX_DiscardUnknown()
		+GetTimestamp(): timestamppb.Timestamp
		+GetTag(): string
		+Validate(): error
	}
}



package "event" {
	interface "TopicEventWithContexter" as event.TopicEventWithContexter {
		+Publish(ctx: context.Context, c: <-chan event.EventWithContexter)
		+Publisher(ctx: context.Context): chan<- event.EventWithContexter
		+Subscribe(c: chan<- event.EventWithContexter)
	}
}



package "event" {
	class "mapEventWithContexter" as event.mapEventWithContexter <<V,Orchid>> {
		-m: sync.Map
		-get(topic: interface{}): event.TopicEventWithContexter
	}
}



package "event" {
	class "tEventWithContexter" as event.tEventWithContexter <<E,#FFCC00>> {
		-mu: sync.RWMutex
		-c: []chan<- event.EventWithContexter
		+Publish(ctx: context.Context, c: <-chan event.EventWithContexter)
		+Publisher(ctx: context.Context): chan<- event.EventWithContexter
		+Subscribe(c: chan<- event.EventWithContexter)
	}
}

	event.tEventWithContexter --> sync.RWMutex


package "meta" {
	class "Meta" as meta.Meta <<E,#FFCC00>> {
		+Name: string
		+Semver: string
		+Channel: string
		+Runtime: *meta.Runtime
		+Serial: string
		+Build: time.Time
		+Vcs: *meta.Vcs
		+XXX_NoUnkeyedLiteral: struct{}
		+XXX_unrecognized: []byte
		+XXX_sizecache: int32
		+Validate(): error
		+JSON(): []byte
		+Flatten(): map[string]interface{}
		+MarshalZerologObject(e: zerolog.Event)
		+Reset()
		+String(): string
		+ProtoMessage()
		+Descriptor(): ([]byte, []int)
		+XXX_Unmarshal(b: []byte): error
		+XXX_Marshal(b: []byte, deterministic: bool): ([]byte, error)
		+XXX_Merge(src: protoiface.MessageV1)
		+XXX_Size(): int
		+XXX_DiscardUnknown()
		+GetName(): string
		+GetSemver(): string
		+GetChannel(): string
		+GetRuntime(): *meta.Runtime
		+GetSerial(): string
		+GetBuild(): time.Time
		+GetVcs(): *meta.Vcs
	}
}

	meta.Meta --> meta.Runtime
	meta.Meta --> meta.Vcs

	meta.Meta ..> meta.Runtime : <<return>> 
	meta.Meta ..> meta.Vcs : <<return>> 

package "meta" {
	class "MetaValidationError" as meta.MetaValidationError <<V,Orchid>> {
		-field: string
		-reason: string
		-cause: error
		-key: bool
		+Field(): string
		+Reason(): string
		+Cause(): error
		+Key(): bool
		+ErrorName(): string
		+Error(): string
	}
}



package "meta" {
	interface "Metaer" as meta.Metaer {
		+Descriptor(): ([]byte, []int)
		+Flatten(): map[string]interface{}
		+GetBuild(): time.Time
		+GetChannel(): string
		+GetName(): string
		+GetRuntime(): *meta.Runtime
		+GetSemver(): string
		+GetSerial(): string
		+GetVcs(): *meta.Vcs
		+JSON(): []byte
		+MarshalZerologObject(: zerolog.Event)
		+ProtoMessage()
		+Reset()
		+String(): string
		+Validate(): error
		+XXX_DiscardUnknown()
		+XXX_Marshal(: []byte, : bool): ([]byte, error)
		+XXX_Merge(: protoiface.MessageV1)
		+XXX_Size(): int
		+XXX_Unmarshal(: []byte): error
	}
}


	meta.Metaer ..> meta.Runtime : <<return>> 
	meta.Metaer ..> meta.Vcs : <<return>> 

package "meta" {
	class "Runtime" as meta.Runtime <<E,#FFCC00>> {
		+Version: string
		+Arch: string
		+Os: string
		+XXX_NoUnkeyedLiteral: struct{}
		+XXX_unrecognized: []byte
		+XXX_sizecache: int32
		+Validate(): error
		+Reset()
		+String(): string
		+ProtoMessage()
		+Descriptor(): ([]byte, []int)
		+XXX_Unmarshal(b: []byte): error
		+XXX_Marshal(b: []byte, deterministic: bool): ([]byte, error)
		+XXX_Merge(src: protoiface.MessageV1)
		+XXX_Size(): int
		+XXX_DiscardUnknown()
		+GetVersion(): string
		+GetArch(): string
		+GetOs(): string
	}
}



package "meta" {
	class "RuntimeValidationError" as meta.RuntimeValidationError <<V,Orchid>> {
		-field: string
		-reason: string
		-cause: error
		-key: bool
		+Field(): string
		+Reason(): string
		+Cause(): error
		+Key(): bool
		+ErrorName(): string
		+Error(): string
	}
}



package "meta" {
	class "Vcs" as meta.Vcs <<E,#FFCC00>> {
		+Hash: string
		+Branch: string
		+Tag: string
		+XXX_NoUnkeyedLiteral: struct{}
		+XXX_unrecognized: []byte
		+XXX_sizecache: int32
		+Validate(): error
		+Reset()
		+String(): string
		+ProtoMessage()
		+Descriptor(): ([]byte, []int)
		+XXX_Unmarshal(b: []byte): error
		+XXX_Marshal(b: []byte, deterministic: bool): ([]byte, error)
		+XXX_Merge(src: protoiface.MessageV1)
		+XXX_Size(): int
		+XXX_DiscardUnknown()
		+GetHash(): string
		+GetBranch(): string
		+GetTag(): string
	}
}



package "meta" {
	class "VcsValidationError" as meta.VcsValidationError <<V,Orchid>> {
		-field: string
		-reason: string
		-cause: error
		-key: bool
		+Field(): string
		+Reason(): string
		+Cause(): error
		+Key(): bool
		+ErrorName(): string
		+Error(): string
	}
}



package "config" {
	class "KV" as config.KV <<V,Orchid>> {
		+K: string
		+V: interface{}
	}
}



package "errs" {
	class "Error" as errs.Error <<V,Orchid>> {
		+Code: fmt.Stringer
		+Message: string
		+Op: string
		+Err: error
		-errorMessage: string
		+Error(): string
		+MarshalZerologObject(e: zerolog.Event)
	}
}



package "topic" {
	interface "ChanT" as topic.ChanT
}



package "topic" {
	interface "Ier" as topic.Ier
}



package "topic" {
	interface "T" as topic.T
}



package "topic" {
	class "TWithContext" as topic.TWithContext <<E,#FFCC00>> {
		+Context: context.Context
		+T: topic.Ier
		+GetContext(): context.Context
		+GetT(): topic.Ier
		+MarshalZerologObject(e: zerolog.Event)
		+String(): string
		+Validate(): error
	}
}

	topic.TWithContext --> topic.Ier

	topic.TWithContext ..> topic.Ier : <<return>> 

package "topic" {
	interface "TopicChanT" as topic.TopicChanT {
		+Publish(ctx: context.Context, c: <-chan topic.ChanT)
		+Publisher(ctx: context.Context): chan<- topic.ChanT
		+Subscribe(c: chan<- topic.ChanT)
	}
}



package "topic" {
	interface "TopicContextContext" as topic.TopicContextContext {
		+Publish(ctx: context.Context, c: <-chan context.Context)
		+Publisher(ctx: context.Context): chan<- context.Context
		+Subscribe(c: chan<- context.Context)
	}
}



package "topic" {
	class "mapChanT" as topic.mapChanT <<V,Orchid>> {
		-m: sync.Map
		-get(topic: interface{}): topic.TopicChanT
	}
}



package "topic" {
	class "mapContextContext" as topic.mapContextContext <<V,Orchid>> {
		-m: sync.Map
		-get(topic: interface{}): topic.TopicContextContext
	}
}



package "topic" {
	class "tChanT" as topic.tChanT <<E,#FFCC00>> {
		-mu: sync.RWMutex
		-c: []chan<- topic.ChanT
		+Publish(ctx: context.Context, c: <-chan topic.ChanT)
		+Publisher(ctx: context.Context): chan<- topic.ChanT
		+Subscribe(c: chan<- topic.ChanT)
	}
}

	topic.tChanT --> sync.RWMutex


package "topic" {
	class "tContextContext" as topic.tContextContext <<E,#FFCC00>> {
		-mu: sync.RWMutex
		-c: []chan<- context.Context
		+Publish(ctx: context.Context, c: <-chan context.Context)
		+Publisher(ctx: context.Context): chan<- context.Context
		+Subscribe(c: chan<- context.Context)
	}
}

	topic.tContextContext --> sync.RWMutex


package "pb" {
	class "T" as pb.T <<V,Orchid>> {
		+MarshalZerologObject(e: zerolog.Event)
	}
}



package "pipe" {
	interface "InT" as pipe.InT
}



package "pipe" {
	interface "NameGetContexter" as pipe.NameGetContexter {
		+GetContext(): context.Context
	}
}



package "pipe" {
	interface "OutT" as pipe.OutT
}



	semaphore.Semaphore -up-|> topic.ChanT
	semaphore.Semaphore -up-|> topic.Ier
	semaphore.Semaphore -up-|> topic.T
	semaphore.Semaphore -up-|> pipe.InT
	semaphore.Semaphore -up-|> pipe.OutT
	slog.AppengineEntry -up-|> topic.ChanT
	slog.AppengineEntry -up-|> topic.Ier
	slog.AppengineEntry -up-|> topic.T
	slog.AppengineEntry -up-|> pipe.InT
	slog.AppengineEntry -up-|> pipe.OutT
	slog.AppengineEntryValidationError -up-|> topic.ChanT
	slog.AppengineEntryValidationError -up-|> topic.Ier
	slog.AppengineEntryValidationError -up-|> topic.T
	slog.AppengineEntryValidationError -up-|> pipe.InT
	slog.AppengineEntryValidationError -up-|> pipe.OutT
	slog.AppengineEntryer -up-|> topic.ChanT
	slog.AppengineEntryer -up-|> topic.Ier
	slog.AppengineEntryer -up-|> topic.T
	slog.AppengineEntryer -up-|> pipe.InT
	slog.AppengineEntryer -up-|> pipe.OutT
	slog.AppengineLoggingWriter -up-|> slog.Tracer
	slog.AppengineLoggingWriter -up-|> topic.ChanT
	slog.AppengineLoggingWriter -up-|> topic.Ier
	slog.AppengineLoggingWriter -up-|> topic.T
	slog.AppengineLoggingWriter -up-|> pipe.InT
	slog.AppengineLoggingWriter -up-|> pipe.OutT
	slog.AppengineSourceLocation -up-|> topic.ChanT
	slog.AppengineSourceLocation -up-|> topic.Ier
	slog.AppengineSourceLocation -up-|> topic.T
	slog.AppengineSourceLocation -up-|> pipe.InT
	slog.AppengineSourceLocation -up-|> pipe.OutT
	slog.AppengineSourceLocationValidationError -up-|> topic.ChanT
	slog.AppengineSourceLocationValidationError -up-|> topic.Ier
	slog.AppengineSourceLocationValidationError -up-|> topic.T
	slog.AppengineSourceLocationValidationError -up-|> pipe.InT
	slog.AppengineSourceLocationValidationError -up-|> pipe.OutT
	slog.HookMeta -up-|> topic.ChanT
	slog.HookMeta -up-|> topic.Ier
	slog.HookMeta -up-|> topic.T
	slog.HookMeta -up-|> pipe.InT
	slog.HookMeta -up-|> pipe.OutT
	slog.StackdriverCloser -up-|> event.Closer
	slog.StackdriverCloser -up-|> topic.ChanT
	slog.StackdriverCloser -up-|> topic.Ier
	slog.StackdriverCloser -up-|> topic.T
	slog.StackdriverCloser -up-|> pipe.InT
	slog.StackdriverCloser -up-|> pipe.OutT
	slog.StackdriverLoggingWriter -up-|> slog.Tracer
	slog.StackdriverLoggingWriter -up-|> topic.ChanT
	slog.StackdriverLoggingWriter -up-|> topic.Ier
	slog.StackdriverLoggingWriter -up-|> topic.T
	slog.StackdriverLoggingWriter -up-|> pipe.InT
	slog.StackdriverLoggingWriter -up-|> pipe.OutT
	slog.StackdriverZerologWriter -up-|> topic.ChanT
	slog.StackdriverZerologWriter -up-|> topic.Ier
	slog.StackdriverZerologWriter -up-|> topic.T
	slog.StackdriverZerologWriter -up-|> pipe.InT
	slog.StackdriverZerologWriter -up-|> pipe.OutT
	slog.TraceObject -up-|> topic.ChanT
	slog.TraceObject -up-|> topic.Ier
	slog.TraceObject -up-|> topic.T
	slog.TraceObject -up-|> pipe.InT
	slog.TraceObject -up-|> pipe.OutT
	slog.Tracer -up-|> topic.ChanT
	slog.Tracer -up-|> topic.Ier
	slog.Tracer -up-|> topic.T
	slog.Tracer -up-|> pipe.InT
	slog.Tracer -up-|> pipe.OutT
	slog.rawJSON -up-|> topic.ChanT
	slog.rawJSON -up-|> topic.Ier
	slog.rawJSON -up-|> topic.T
	slog.rawJSON -up-|> pipe.InT
	slog.rawJSON -up-|> pipe.OutT
	terminate.TerminateGetContexter -up-|> update.UpdateGetContexter
	terminate.TerminateGetContexter -up-|> topic.ChanT
	terminate.TerminateGetContexter -up-|> topic.Ier
	terminate.TerminateGetContexter -up-|> topic.T
	terminate.TerminateGetContexter -up-|> pipe.InT
	terminate.TerminateGetContexter -up-|> pipe.NameGetContexter
	terminate.TerminateGetContexter -up-|> pipe.OutT
	terminate.TopicContextContext -up-|> topic.ChanT
	terminate.TopicContextContext -up-|> topic.Ier
	terminate.TopicContextContext -up-|> topic.T
	terminate.TopicContextContext -up-|> topic.TopicContextContext
	terminate.TopicContextContext -up-|> pipe.InT
	terminate.TopicContextContext -up-|> pipe.OutT
	terminate.mapContextContext -up-|> topic.ChanT
	terminate.mapContextContext -up-|> topic.Ier
	terminate.mapContextContext -up-|> topic.T
	terminate.mapContextContext -up-|> pipe.InT
	terminate.mapContextContext -up-|> pipe.OutT
	terminate.tContextContext -up-|> terminate.TopicContextContext
	terminate.tContextContext -up-|> topic.ChanT
	terminate.tContextContext -up-|> topic.Ier
	terminate.tContextContext -up-|> topic.T
	terminate.tContextContext -up-|> topic.TopicContextContext
	terminate.tContextContext -up-|> pipe.InT
	terminate.tContextContext -up-|> pipe.OutT
	update.UpdateGetContexter -up-|> terminate.TerminateGetContexter
	update.UpdateGetContexter -up-|> topic.ChanT
	update.UpdateGetContexter -up-|> topic.Ier
	update.UpdateGetContexter -up-|> topic.T
	update.UpdateGetContexter -up-|> pipe.InT
	update.UpdateGetContexter -up-|> pipe.NameGetContexter
	update.UpdateGetContexter -up-|> pipe.OutT
	cmd.Resource -up-|> event.Closer
	cmd.Resource -up-|> topic.ChanT
	cmd.Resource -up-|> topic.Ier
	cmd.Resource -up-|> topic.T
	cmd.Resource -up-|> pipe.InT
	cmd.Resource -up-|> pipe.OutT
	debug.ClientRepository -up-|> topic.ChanT
	debug.ClientRepository -up-|> topic.Ier
	debug.ClientRepository -up-|> topic.T
	debug.ClientRepository -up-|> pipe.InT
	debug.ClientRepository -up-|> pipe.OutT
	debug.ClientWithContext -up-|> terminate.TerminateGetContexter
	debug.ClientWithContext -up-|> update.UpdateGetContexter
	debug.ClientWithContext -up-|> debug.ClientWithContexter
	debug.ClientWithContext -up-|> topic.ChanT
	debug.ClientWithContext -up-|> topic.Ier
	debug.ClientWithContext -up-|> topic.T
	debug.ClientWithContext -up-|> pipe.InT
	debug.ClientWithContext -up-|> pipe.NameGetContexter
	debug.ClientWithContext -up-|> pipe.OutT
	debug.ClientWithContexter -up-|> terminate.TerminateGetContexter
	debug.ClientWithContexter -up-|> update.UpdateGetContexter
	debug.ClientWithContexter -up-|> topic.ChanT
	debug.ClientWithContexter -up-|> topic.Ier
	debug.ClientWithContexter -up-|> topic.T
	debug.ClientWithContexter -up-|> pipe.InT
	debug.ClientWithContexter -up-|> pipe.NameGetContexter
	debug.ClientWithContexter -up-|> pipe.OutT
	pb.DebugClienter -up-|> event.Message
	pb.DebugClienter -up-|> topic.ChanT
	pb.DebugClienter -up-|> topic.Ier
	pb.DebugClienter -up-|> topic.T
	pb.DebugClienter -up-|> pipe.InT
	pb.DebugClienter -up-|> pipe.OutT
	debug.TopicClientWithContexter -up-|> topic.ChanT
	debug.TopicClientWithContexter -up-|> topic.Ier
	debug.TopicClientWithContexter -up-|> topic.T
	debug.TopicClientWithContexter -up-|> pipe.InT
	debug.TopicClientWithContexter -up-|> pipe.OutT
	debug.TopicClienter -up-|> topic.ChanT
	debug.TopicClienter -up-|> topic.Ier
	debug.TopicClienter -up-|> topic.T
	debug.TopicClienter -up-|> pipe.InT
	debug.TopicClienter -up-|> pipe.OutT
	debug.mapClientWithContexter -up-|> topic.ChanT
	debug.mapClientWithContexter -up-|> topic.Ier
	debug.mapClientWithContexter -up-|> topic.T
	debug.mapClientWithContexter -up-|> pipe.InT
	debug.mapClientWithContexter -up-|> pipe.OutT
	debug.mapClienter -up-|> topic.ChanT
	debug.mapClienter -up-|> topic.Ier
	debug.mapClienter -up-|> topic.T
	debug.mapClienter -up-|> pipe.InT
	debug.mapClienter -up-|> pipe.OutT
	debug.tClientWithContexter -up-|> debug.TopicClientWithContexter
	debug.tClientWithContexter -up-|> topic.ChanT
	debug.tClientWithContexter -up-|> topic.Ier
	debug.tClientWithContexter -up-|> topic.T
	debug.tClientWithContexter -up-|> pipe.InT
	debug.tClientWithContexter -up-|> pipe.OutT
	debug.tClienter -up-|> debug.TopicClienter
	debug.tClienter -up-|> topic.ChanT
	debug.tClienter -up-|> topic.Ier
	debug.tClienter -up-|> topic.T
	debug.tClienter -up-|> pipe.InT
	debug.tClienter -up-|> pipe.OutT
	event.Closer -up-|> topic.ChanT
	event.Closer -up-|> topic.Ier
	event.Closer -up-|> topic.T
	event.Closer -up-|> pipe.InT
	event.Closer -up-|> pipe.OutT
	pb.Event -up-|> pb.Eventer
	pb.Event -up-|> event.Message
	pb.Event -up-|> topic.ChanT
	pb.Event -up-|> topic.Ier
	pb.Event -up-|> topic.T
	pb.Event -up-|> pipe.InT
	pb.Event -up-|> pipe.OutT
	event.EventWithContext -up-|> terminate.TerminateGetContexter
	event.EventWithContext -up-|> update.UpdateGetContexter
	event.EventWithContext -up-|> event.EventWithContexter
	event.EventWithContext -up-|> topic.ChanT
	event.EventWithContext -up-|> topic.Ier
	event.EventWithContext -up-|> topic.T
	event.EventWithContext -up-|> pipe.InT
	event.EventWithContext -up-|> pipe.NameGetContexter
	event.EventWithContext -up-|> pipe.OutT
	event.EventWithContexter -up-|> terminate.TerminateGetContexter
	event.EventWithContexter -up-|> update.UpdateGetContexter
	event.EventWithContexter -up-|> topic.ChanT
	event.EventWithContexter -up-|> topic.Ier
	event.EventWithContexter -up-|> topic.T
	event.EventWithContexter -up-|> pipe.InT
	event.EventWithContexter -up-|> pipe.NameGetContexter
	event.EventWithContexter -up-|> pipe.OutT
	pb.Eventer -up-|> event.Message
	pb.Eventer -up-|> topic.ChanT
	pb.Eventer -up-|> topic.Ier
	pb.Eventer -up-|> topic.T
	pb.Eventer -up-|> pipe.InT
	pb.Eventer -up-|> pipe.OutT
	keyvalue.KeyValueWithContext -up-|> terminate.TerminateGetContexter
	keyvalue.KeyValueWithContext -up-|> update.UpdateGetContexter
	keyvalue.KeyValueWithContext -up-|> keyvalue.KeyValueWithContexter
	keyvalue.KeyValueWithContext -up-|> topic.ChanT
	keyvalue.KeyValueWithContext -up-|> topic.Ier
	keyvalue.KeyValueWithContext -up-|> topic.T
	keyvalue.KeyValueWithContext -up-|> pipe.InT
	keyvalue.KeyValueWithContext -up-|> pipe.NameGetContexter
	keyvalue.KeyValueWithContext -up-|> pipe.OutT
	keyvalue.KeyValueWithContexter -up-|> terminate.TerminateGetContexter
	keyvalue.KeyValueWithContexter -up-|> update.UpdateGetContexter
	keyvalue.KeyValueWithContexter -up-|> topic.ChanT
	keyvalue.KeyValueWithContexter -up-|> topic.Ier
	keyvalue.KeyValueWithContexter -up-|> topic.T
	keyvalue.KeyValueWithContexter -up-|> pipe.InT
	keyvalue.KeyValueWithContexter -up-|> pipe.NameGetContexter
	keyvalue.KeyValueWithContexter -up-|> pipe.OutT
	event.Keyer -up-|> topic.ChanT
	event.Keyer -up-|> topic.Ier
	event.Keyer -up-|> topic.T
	event.Keyer -up-|> pipe.InT
	event.Keyer -up-|> pipe.OutT
	event.Loader -up-|> topic.ChanT
	event.Loader -up-|> topic.Ier
	event.Loader -up-|> topic.T
	event.Loader -up-|> pipe.InT
	event.Loader -up-|> pipe.OutT
	event.Message -up-|> topic.ChanT
	event.Message -up-|> topic.Ier
	event.Message -up-|> topic.T
	event.Message -up-|> pipe.InT
	event.Message -up-|> pipe.OutT
	event.Saver -up-|> topic.ChanT
	event.Saver -up-|> topic.Ier
	event.Saver -up-|> topic.T
	event.Saver -up-|> pipe.InT
	event.Saver -up-|> pipe.OutT
	pb.EventTimePoint -up-|> topic.ChanT
	pb.EventTimePoint -up-|> topic.Ier
	pb.EventTimePoint -up-|> topic.T
	pb.EventTimePoint -up-|> pipe.InT
	pb.EventTimePoint -up-|> pipe.OutT
	event.TopicEventWithContexter -up-|> topic.ChanT
	event.TopicEventWithContexter -up-|> topic.Ier
	event.TopicEventWithContexter -up-|> topic.T
	event.TopicEventWithContexter -up-|> pipe.InT
	event.TopicEventWithContexter -up-|> pipe.OutT
	event.mapEventWithContexter -up-|> topic.ChanT
	event.mapEventWithContexter -up-|> topic.Ier
	event.mapEventWithContexter -up-|> topic.T
	event.mapEventWithContexter -up-|> pipe.InT
	event.mapEventWithContexter -up-|> pipe.OutT
	event.tEventWithContexter -up-|> event.TopicEventWithContexter
	event.tEventWithContexter -up-|> topic.ChanT
	event.tEventWithContexter -up-|> topic.Ier
	event.tEventWithContexter -up-|> topic.T
	event.tEventWithContexter -up-|> pipe.InT
	event.tEventWithContexter -up-|> pipe.OutT
	meta.Meta -up-|> event.Message
	meta.Meta -up-|> meta.Metaer
	meta.Meta -up-|> topic.ChanT
	meta.Meta -up-|> topic.Ier
	meta.Meta -up-|> topic.T
	meta.Meta -up-|> pipe.InT
	meta.Meta -up-|> pipe.OutT
	meta.MetaValidationError -up-|> topic.ChanT
	meta.MetaValidationError -up-|> topic.Ier
	meta.MetaValidationError -up-|> topic.T
	meta.MetaValidationError -up-|> pipe.InT
	meta.MetaValidationError -up-|> pipe.OutT
	meta.Metaer -up-|> event.Message
	meta.Metaer -up-|> topic.ChanT
	meta.Metaer -up-|> topic.Ier
	meta.Metaer -up-|> topic.T
	meta.Metaer -up-|> pipe.InT
	meta.Metaer -up-|> pipe.OutT
	meta.Runtime -up-|> topic.ChanT
	meta.Runtime -up-|> topic.Ier
	meta.Runtime -up-|> topic.T
	meta.Runtime -up-|> pipe.InT
	meta.Runtime -up-|> pipe.OutT
	meta.RuntimeValidationError -up-|> topic.ChanT
	meta.RuntimeValidationError -up-|> topic.Ier
	meta.RuntimeValidationError -up-|> topic.T
	meta.RuntimeValidationError -up-|> pipe.InT
	meta.RuntimeValidationError -up-|> pipe.OutT
	meta.Vcs -up-|> topic.ChanT
	meta.Vcs -up-|> topic.Ier
	meta.Vcs -up-|> topic.T
	meta.Vcs -up-|> pipe.InT
	meta.Vcs -up-|> pipe.OutT
	meta.VcsValidationError -up-|> topic.ChanT
	meta.VcsValidationError -up-|> topic.Ier
	meta.VcsValidationError -up-|> topic.T
	meta.VcsValidationError -up-|> pipe.InT
	meta.VcsValidationError -up-|> pipe.OutT
	config.KV -up-|> topic.ChanT
	config.KV -up-|> topic.Ier
	config.KV -up-|> topic.T
	config.KV -up-|> pipe.InT
	config.KV -up-|> pipe.OutT
	errs.Error -up-|> topic.ChanT
	errs.Error -up-|> topic.Ier
	errs.Error -up-|> topic.T
	errs.Error -up-|> pipe.InT
	errs.Error -up-|> pipe.OutT
	topic.ChanT -up-|> topic.Ier
	topic.ChanT -up-|> topic.T
	topic.ChanT -up-|> pipe.InT
	topic.ChanT -up-|> pipe.OutT
	topic.Ier -up-|> topic.ChanT
	topic.Ier -up-|> topic.T
	topic.Ier -up-|> pipe.InT
	topic.Ier -up-|> pipe.OutT
	topic.T -up-|> topic.ChanT
	topic.T -up-|> topic.Ier
	topic.T -up-|> pipe.InT
	topic.T -up-|> pipe.OutT
	topic.TWithContext -up-|> terminate.TerminateGetContexter
	topic.TWithContext -up-|> update.UpdateGetContexter
	topic.TWithContext -up-|> topic.ChanT
	topic.TWithContext -up-|> topic.Ier
	topic.TWithContext -up-|> topic.T
	topic.TWithContext -up-|> pipe.InT
	topic.TWithContext -up-|> pipe.NameGetContexter
	topic.TWithContext -up-|> pipe.OutT
	topic.TopicChanT -up-|> topic.ChanT
	topic.TopicChanT -up-|> topic.Ier
	topic.TopicChanT -up-|> topic.T
	topic.TopicChanT -up-|> pipe.InT
	topic.TopicChanT -up-|> pipe.OutT
	topic.TopicContextContext -up-|> terminate.TopicContextContext
	topic.TopicContextContext -up-|> topic.ChanT
	topic.TopicContextContext -up-|> topic.Ier
	topic.TopicContextContext -up-|> topic.T
	topic.TopicContextContext -up-|> pipe.InT
	topic.TopicContextContext -up-|> pipe.OutT
	topic.mapChanT -up-|> topic.ChanT
	topic.mapChanT -up-|> topic.Ier
	topic.mapChanT -up-|> topic.T
	topic.mapChanT -up-|> pipe.InT
	topic.mapChanT -up-|> pipe.OutT
	topic.mapContextContext -up-|> topic.ChanT
	topic.mapContextContext -up-|> topic.Ier
	topic.mapContextContext -up-|> topic.T
	topic.mapContextContext -up-|> pipe.InT
	topic.mapContextContext -up-|> pipe.OutT
	topic.tChanT -up-|> topic.ChanT
	topic.tChanT -up-|> topic.Ier
	topic.tChanT -up-|> topic.T
	topic.tChanT -up-|> topic.TopicChanT
	topic.tChanT -up-|> pipe.InT
	topic.tChanT -up-|> pipe.OutT
	topic.tContextContext -up-|> terminate.TopicContextContext
	topic.tContextContext -up-|> topic.ChanT
	topic.tContextContext -up-|> topic.Ier
	topic.tContextContext -up-|> topic.T
	topic.tContextContext -up-|> topic.TopicContextContext
	topic.tContextContext -up-|> pipe.InT
	topic.tContextContext -up-|> pipe.OutT
	pb.T -up-|> topic.ChanT
	pb.T -up-|> topic.Ier
	pb.T -up-|> topic.T
	pb.T -up-|> pipe.InT
	pb.T -up-|> pipe.OutT
	pipe.InT -up-|> topic.ChanT
	pipe.InT -up-|> topic.Ier
	pipe.InT -up-|> topic.T
	pipe.InT -up-|> pipe.OutT
	pipe.NameGetContexter -up-|> terminate.TerminateGetContexter
	pipe.NameGetContexter -up-|> update.UpdateGetContexter
	pipe.NameGetContexter -up-|> topic.ChanT
	pipe.NameGetContexter -up-|> topic.Ier
	pipe.NameGetContexter -up-|> topic.T
	pipe.NameGetContexter -up-|> pipe.InT
	pipe.NameGetContexter -up-|> pipe.OutT
	pipe.OutT -up-|> topic.ChanT
	pipe.OutT -up-|> topic.Ier
	pipe.OutT -up-|> topic.T
	pipe.OutT -up-|> pipe.InT


@enduml
